<svg width="1024" height="1024" viewBox="0 0 1024 1024" fill="none" xmlns="http://www.w3.org/2000/svg">
<rect width="1024" height="1024" fill="black"/>
<path fill-rule="evenodd" clip-rule="evenodd" d="M700.16 335.82V339.124H663.208L717.404 418.488L771.6 339.124H736.16V335.82C736.16 254.614 670.094 188.548 588.886 188.548H568.888V224.548H588.886C650.242 224.548 700.16 274.464 700.16 335.82Z" fill="white"/>
<path fill-rule="evenodd" clip-rule="evenodd" d="M285.458 677.9V674.598H322.41L268.214 595.232L214.018 674.598H249.458V677.9C249.458 759.108 315.524 825.174 396.732 825.174H416.73V789.174H396.732C335.376 789.174 285.458 739.256 285.458 677.9Z" fill="white"/>
<path fill-rule="evenodd" clip-rule="evenodd" d="M547.19 328.356C547.19 202.006 444.762 99.5801 318.412 99.5801C192.062 99.5801 89.636 202.006 89.636 328.356C89.636 454.706 192.062 557.134 318.412 557.134C444.762 557.134 547.19 454.706 547.19 328.356ZM164.782 328.356C164.782 243.508 233.566 174.724 318.412 174.724C403.262 174.724 472.044 243.508 472.044 328.356C472.044 413.206 403.26 481.988 318.412 481.988C233.564 481.988 164.782 413.206 164.782 328.356Z" fill="white"/>
<path fill-rule="evenodd" clip-rule="evenodd" d="M320.736 445.056C321.114 443.962 321.304 442.854 321.304 441.732V425.348C330.268 424.788 338.446 423.226 345.838 420.67C353.214 418.112 359.542 414.526 364.802 409.904C370.08 405.29 374.146 399.62 377.004 392.914C379.876 386.202 381.304 378.416 381.304 369.554C381.304 362.754 380.56 356.762 379.058 351.58C377.572 346.398 375.488 341.842 372.804 337.914C370.122 333.978 366.93 330.612 363.214 327.798C359.51 324.992 355.428 322.544 350.968 320.452C346.522 318.36 341.784 316.582 336.77 315.118C331.754 313.652 326.594 312.296 321.304 311.044V260.87C325.72 260.928 329.496 261.694 332.6 263.16C335.72 264.632 338.402 266.424 340.646 268.546C342.89 270.668 344.846 272.962 346.534 275.426C348.212 277.89 349.874 280.186 351.534 282.306C353.182 284.428 354.93 286.19 356.768 287.598C358.604 288.998 360.834 289.706 363.444 289.706C365.498 289.706 367.454 289.328 369.29 288.582C371.126 287.832 372.746 286.752 374.144 285.346C375.558 283.946 376.652 282.212 377.468 280.156C378.284 278.094 378.676 275.782 378.676 273.224C378.676 268.918 377.7 264.974 375.732 261.38C373.776 257.794 371.184 254.566 367.976 251.694C364.768 248.822 361.124 246.292 357.042 244.106C352.962 241.926 348.808 240.082 344.566 238.588C340.324 237.088 336.17 235.95 332.088 235.17C328.006 234.39 324.406 233.938 321.3 233.806V218.456C321.3 217.268 321.11 216.13 320.732 215.038C320.354 213.944 319.828 212.982 319.172 212.136C318.516 211.292 317.744 210.62 316.87 210.124C315.982 209.622 315.048 209.374 314.042 209.374C313.036 209.374 312.076 209.622 311.17 210.124C310.252 210.62 309.464 211.29 308.808 212.136C308.152 212.982 307.626 213.944 307.248 215.038C306.87 216.13 306.696 217.268 306.696 218.456V233.806C299.146 234.12 291.914 235.498 285.018 237.932C278.124 240.366 272.032 243.888 266.768 248.508C261.49 253.13 257.294 258.836 254.174 265.642C251.054 272.442 249.494 280.336 249.494 289.324C249.494 296.692 250.806 303.288 253.416 309.126C256.04 314.964 259.814 320.094 264.742 324.526C269.684 328.958 275.69 332.718 282.774 335.808C289.858 338.898 297.832 341.31 306.696 343.06V398.388C301.696 398.14 297.598 397.426 294.378 396.238C291.17 395.05 288.532 393.542 286.462 391.698C284.408 389.854 282.818 387.798 281.696 385.516C280.572 383.242 279.626 380.932 278.838 378.592C278.05 376.252 277.306 373.97 276.594 371.756C275.88 369.54 274.902 367.572 273.692 365.86C272.468 364.14 270.864 362.754 268.868 361.69C266.87 360.634 264.188 360.102 260.822 360.102C256.142 360.102 252.454 361.538 249.774 364.41C247.09 367.282 245.75 371.4 245.75 376.764C245.75 380.262 246.302 383.848 247.426 387.528C248.55 391.216 250.24 394.832 252.484 398.388C254.728 401.944 257.556 405.32 260.952 408.498C264.364 411.682 268.314 414.496 272.804 416.922C277.294 419.358 282.366 421.324 288.008 422.826C293.664 424.32 299.888 425.166 306.698 425.348V441.732C306.698 442.856 306.872 443.962 307.25 445.056C307.628 446.148 308.154 447.118 308.81 447.956C309.466 448.802 310.254 449.472 311.172 449.974C312.076 450.47 313.038 450.718 314.044 450.718C315.05 450.718 315.984 450.47 316.872 449.974C317.748 449.472 318.518 448.802 319.174 447.956C319.832 447.12 320.358 446.15 320.736 445.056ZM321.304 345.96C324.526 346.776 327.908 347.76 331.422 348.912C334.934 350.064 338.14 351.644 341.044 353.642C343.928 355.64 346.306 358.132 348.17 361.128C350.036 364.124 350.968 367.87 350.968 372.36C350.968 376.798 350.108 380.588 348.358 383.736C346.624 386.892 344.35 389.508 341.552 391.6C338.754 393.692 335.576 395.282 332.032 396.374C328.476 397.466 324.906 398.138 321.304 398.386V345.96ZM306.7 308.14C297.648 306.142 290.898 303.162 286.466 299.196C282.036 295.238 279.82 289.946 279.82 283.328C279.82 280.464 280.446 277.702 281.7 275.048C282.938 272.394 284.746 270.034 287.078 267.978C289.424 265.916 292.238 264.246 295.546 262.972C298.854 261.688 302.574 260.99 306.698 260.866V308.14H306.7Z" fill="white"/>
<path fill-rule="evenodd" clip-rule="evenodd" d="M694.174 444.042C561.732 444.042 453.984 551.79 453.984 684.232C453.984 816.674 561.732 924.42 694.174 924.42C826.616 924.42 934.364 816.672 934.364 684.23C934.364 551.788 826.616 444.042 694.174 444.042ZM860.256 725.83C852.384 757.36 835.818 785.398 813.23 807.258L844.962 838.99C819.504 863.8 787.974 882.41 752.832 892.328L741.19 848.876C725.656 853.304 709.246 855.63 692.27 855.44C676.626 855.266 661.512 852.96 647.156 848.87L635.512 892.328C600.37 882.408 568.84 863.798 543.384 838.986L575.134 807.238C552.518 785.346 535.918 757.316 528.056 725.84L484.628 737.476C480.296 720.436 477.986 702.6 477.986 684.23C477.986 665.86 480.296 648.022 484.628 630.984L528.09 642.628C535.962 611.1 552.528 583.062 575.114 561.202L543.384 529.472C568.842 504.66 600.372 486.052 635.514 476.132L647.156 519.586C662.69 515.156 679.102 512.83 696.076 513.02C711.72 513.194 726.834 515.5 741.19 519.59L752.834 476.132C787.976 486.05 819.504 504.66 844.962 529.47L813.21 561.222C835.826 583.114 852.428 611.146 860.29 642.62L903.72 630.984C908.052 648.024 910.362 665.86 910.362 684.23C910.362 702.6 908.052 720.438 903.72 737.476L860.256 725.83Z" fill="white"/>
<path fill-rule="evenodd" clip-rule="evenodd" d="M694.224 592.104C677.796 621.926 654.026 644.698 630.008 669.008C620.38 678.762 615.262 687.6 615.262 701.43C615.262 722.454 633.168 739.59 655.108 739.59C670.08 739.59 683.142 731.644 689.984 719.938C690.38 733.29 684.224 752.67 673.514 776.358H716.044C705.562 754.376 697.494 734.016 698.262 719.77C705.062 731.582 718.184 739.59 733.2 739.59C755.16 739.59 773.086 722.454 773.086 701.43C773.086 688.492 764.872 677.598 756.596 669.008C727.852 639.164 707.848 615.644 694.224 592.104Z" fill="white"/>
</svg>
